<?xml version="1.0" standalone="no"?>
<!DOCTYPE svg PUBLIC "-//W3C//DTD SVG 20010904//EN"
 "http://www.w3.org/TR/2001/REC-SVG-20010904/DTD/svg10.dtd">
<svg version="1.0" xmlns="http://www.w3.org/2000/svg"
 width="1181.000000pt" height="1181.000000pt" viewBox="0 0 1181.000000 1181.000000"
 preserveAspectRatio="xMidYMid meet">

<g transform="translate(0.000000,1181.000000) scale(0.100000,-0.100000)"
fill="#000000" stroke="none">
<path d="M5735 10624 c-508 -30 -861 -94 -1280 -231 -837 -275 -1612 -819
-2203 -1549 -507 -625 -851 -1355 -987 -2089 -60 -325 -69 -432 -69 -825 -1
-394 5 -485 55 -778 102 -613 337 -1208 686 -1737 236 -357 387 -546 659 -821
452 -456 1017 -838 1575 -1062 363 -147 732 -244 1134 -298 348 -48 826 -45
1220 7 1036 136 1984 628 2751 1429 232 242 362 407 579 735 405 614 639 1258
732 2015 25 204 25 782 0 985 -80 644 -268 1222 -574 1758 -101 177 -320 500
-447 657 -587 729 -1338 1267 -2169 1557 -335 117 -676 190 -1062 227 -153 15
-491 26 -600 20z m485 -114 c700 -52 1374 -261 1945 -602 549 -328 1023 -755
1402 -1261 373 -499 615 -976 778 -1537 161 -557 207 -1211 125 -1801 -110
-791 -437 -1544 -959 -2209 -294 -375 -569 -641 -961 -931 -441 -327 -939
-569 -1455 -707 -1181 -318 -2398 -162 -3445 441 -137 78 -272 169 -447 300
-1022 764 -1727 1935 -1877 3122 -39 306 -48 647 -26 925 78 974 466 1875
1152 2671 402 468 955 896 1488 1152 517 248 1046 391 1620 436 153 12 504 13
660 1z"/>
<path d="M5565 10380 c-337 -30 -698 -100 -970 -187 -723 -232 -1359 -635
-1911 -1213 -216 -226 -361 -410 -556 -710 -375 -575 -597 -1186 -680 -1870
-18 -143 -22 -232 -22 -480 -1 -371 17 -560 85 -892 117 -577 380 -1164 762
-1698 450 -629 1075 -1156 1762 -1486 475 -228 968 -358 1529 -405 210 -17
691 -6 886 20 802 109 1471 386 2115 875 284 216 616 544 841 831 332 423 603
920 763 1401 198 592 260 1279 175 1929 -125 956 -630 1925 -1375 2639 -733
703 -1598 1115 -2587 1232 -151 18 -671 27 -817 14z m540 -100 c836 -46 1596
-304 2225 -754 476 -341 790 -651 1123 -1108 686 -943 959 -2080 771 -3208
-104 -627 -366 -1246 -757 -1792 -330 -461 -689 -816 -1151 -1138 -890 -619
-1974 -866 -3075 -699 -558 84 -1107 286 -1573 580 -534 335 -958 736 -1332
1257 -794 1107 -1020 2454 -626 3732 231 747 727 1506 1335 2039 482 423 965
702 1536 890 352 115 773 190 1144 204 174 7 216 6 380 -3z"/>
<path d="M6039 9666 c-99 -35 -151 -117 -152 -239 -1 -126 60 -212 166 -238
58 -14 142 -7 185 15 36 19 78 70 87 107 6 25 5 26 -52 32 -40 4 -59 3 -62 -5
-2 -7 -15 -23 -28 -36 -21 -21 -31 -24 -70 -19 -56 6 -91 38 -104 96 -24 108
31 201 119 201 33 0 78 -31 87 -60 5 -17 15 -20 66 -20 66 0 70 5 45 63 -17
43 -76 93 -123 106 -51 14 -120 13 -164 -3z"/>
<path d="M5630 9653 c0 -37 21 -380 26 -420 l5 -43 55 0 c49 0 54 2 54 23 0
15 -26 412 -30 455 0 1 -25 2 -55 2 -46 0 -55 -3 -55 -17z"/>
<path d="M5373 9643 c-18 -2 -33 -7 -33 -10 0 -4 7 -44 16 -91 8 -46 13 -87 9
-90 -6 -6 -168 -42 -172 -39 -1 1 -8 42 -17 91 -9 49 -17 91 -19 93 -2 2 -28
-2 -57 -8 -49 -10 -52 -13 -47 -38 3 -14 22 -120 43 -234 l38 -209 45 7 c25 4
50 11 55 16 8 7 -2 89 -20 164 -5 19 3 22 86 36 104 18 90 30 113 -96 14 -77
10 -74 93 -60 l30 5 -42 233 c-24 127 -43 233 -44 235 0 2 -31 1 -77 -5z"/>
<path d="M6519 9628 c0 -2 -24 -106 -53 -233 -40 -172 -50 -232 -41 -237 7 -4
31 -9 55 -10 l44 -3 20 87 c12 48 24 89 27 92 3 3 25 -43 48 -102 24 -59 47
-111 51 -115 7 -8 123 -38 128 -33 1 2 -22 61 -53 132 -30 70 -55 133 -55 140
0 7 45 51 100 98 56 47 102 88 103 93 1 4 -24 14 -56 21 -67 17 -56 22 -177
-87 -79 -71 -80 -70 -51 52 10 42 16 79 12 81 -3 2 -19 6 -36 10 -16 4 -38 9
-47 12 -10 3 -18 4 -19 2z"/>
<path d="M4689 9476 c-98 -35 -155 -101 -166 -194 -11 -98 57 -232 140 -275
104 -54 279 6 323 110 18 41 19 113 2 113 -7 0 -34 -8 -60 -17 -39 -14 -48
-21 -48 -41 0 -13 -13 -37 -29 -53 -80 -79 -210 13 -211 150 0 36 6 49 34 77
28 28 42 34 75 34 27 0 47 -6 59 -18 16 -18 19 -18 72 1 30 11 57 21 58 23 2
1 -7 17 -20 34 -46 64 -142 87 -229 56z"/>
<path d="M6961 9278 c-44 -117 -81 -218 -81 -223 0 -8 89 -46 287 -122 11 -4
43 55 43 81 0 7 -41 27 -90 46 -50 18 -93 37 -96 42 -7 10 17 78 27 78 4 0 43
-13 86 -30 42 -16 81 -30 85 -30 7 0 38 65 38 80 0 4 -37 23 -82 41 -46 18
-85 34 -87 36 -5 4 18 83 25 83 3 0 46 -16 95 -35 50 -19 95 -35 99 -35 6 0
40 71 40 84 0 6 -283 116 -297 116 -6 0 -47 -96 -92 -212z"/>
<path d="M7503 9288 c-29 -47 -223 -392 -223 -398 0 -10 83 -59 91 -54 4 2 38
58 75 125 l69 121 10 -173 10 -173 40 -23 c22 -13 45 -23 50 -23 6 0 58 82
115 183 57 100 110 192 117 204 13 20 12 23 -33 49 -55 33 -45 41 -131 -110
-65 -114 -71 -112 -72 25 -1 47 -4 114 -7 147 -7 60 -8 63 -50 87 -49 29 -50
29 -61 13z"/>
<path d="M3960 9099 c-36 -14 -190 -112 -190 -121 0 -5 238 -373 257 -397 7
-9 175 113 198 143 32 42 55 98 55 134 0 80 -84 208 -157 238 -37 16 -126 17
-163 3z m144 -129 c63 -55 79 -136 38 -186 -26 -31 -72 -58 -81 -48 -13 14
-141 214 -141 219 0 3 15 14 33 25 50 31 109 27 151 -10z"/>
<path d="M3508 8764 c-65 -58 -118 -107 -118 -110 0 -7 310 -354 316 -354 3 0
59 48 124 106 l119 107 -30 39 c-36 45 -25 49 -131 -49 -31 -29 -61 -53 -65
-53 -5 0 -20 14 -33 32 l-23 32 72 66 72 65 -35 34 c-40 39 -28 44 -130 -48
l-49 -45 -30 34 -30 34 78 71 79 72 -30 36 c-16 20 -31 37 -34 37 -3 -1 -58
-48 -122 -106z"/>
<path d="M8090 8698 c-74 -79 -148 -158 -165 -176 l-30 -34 94 -89 c139 -131
202 -146 282 -66 28 28 31 35 27 82 l-4 52 35 1 c50 2 101 57 101 107 0 52
-18 80 -118 178 l-89 88 -133 -143z m220 -103 c0 -26 -18 -45 -44 -45 -21 0
-86 56 -86 74 0 5 12 23 27 38 l27 28 38 -37 c21 -20 38 -46 38 -58z m-155
-81 c50 -40 61 -64 45 -94 -18 -33 -59 -25 -107 21 -24 22 -43 43 -43 46 0 7
51 63 58 63 2 0 23 -16 47 -36z"/>
<path d="M3227 8487 l-35 -44 173 -156 c96 -86 179 -157 184 -157 5 0 23 18
40 39 l32 40 -148 134 c-81 74 -162 146 -179 161 l-32 26 -35 -43z"/>
<path d="M8494 8359 c-149 -57 -223 -215 -159 -338 23 -45 90 -110 131 -127
118 -49 276 27 336 164 36 81 9 179 -69 254 -71 69 -145 84 -239 47z m176
-128 c53 -53 52 -107 -5 -170 -44 -49 -103 -76 -148 -67 -76 14 -119 108 -78
173 57 91 173 123 231 64z"/>
<path d="M5715 8319 c-16 -25 -17 -129 -1 -203 19 -90 39 -141 102 -248 64
-109 62 -115 -66 -211 -143 -107 -136 -104 -150 -59 -7 20 -30 69 -52 108 -36
64 -46 74 -97 98 -119 57 -234 70 -339 40 -148 -43 -379 -149 -437 -202 -17
-15 -26 -24 -20 -21 5 4 21 10 35 14 22 7 23 6 12 -8 -8 -9 -9 -18 -3 -21 5
-3 7 -15 4 -26 -8 -30 20 -25 34 6 13 29 8 49 -9 38 -7 -4 -8 -2 -4 4 4 7 14
12 22 12 8 0 13 -4 10 -9 -3 -5 1 -14 10 -21 12 -11 17 -11 27 0 9 10 9 14 -1
17 -6 3 -10 9 -6 14 9 16 24 -1 24 -27 0 -17 -5 -24 -20 -24 -11 0 -20 -4 -20
-10 0 -5 7 -10 16 -10 8 0 23 -7 32 -16 13 -14 17 -14 20 -3 2 8 9 25 15 38
10 19 8 25 -8 38 -20 14 -19 15 10 39 17 13 38 27 48 30 20 6 22 25 6 41 -9 9
-7 10 10 6 12 -3 21 -1 21 6 0 8 6 7 21 -1 17 -10 23 -10 26 0 3 8 25 12 61
12 52 -1 55 -2 38 -15 -15 -11 -17 -18 -9 -26 8 -8 20 -7 42 4 26 13 31 13 31
1 0 -8 10 -14 26 -14 19 0 24 4 21 18 -2 9 3 29 10 44 13 28 13 28 33 8 11
-11 20 -24 20 -30 0 -16 30 -12 36 5 4 9 19 15 36 15 23 0 29 -4 24 -16 -3 -9
-6 -18 -6 -21 0 -4 -9 2 -19 11 -18 17 -20 17 -30 -1 -8 -15 -6 -23 10 -36 10
-9 19 -26 19 -37 0 -12 4 -19 9 -15 22 13 22 -19 1 -35 -24 -18 -20 -40 7 -40
10 0 14 6 10 20 -3 11 -1 20 4 20 18 0 21 50 5 75 -16 24 -16 25 9 23 25 -2
30 -13 26 -65 -1 -11 3 -24 9 -28 5 -3 8 -11 4 -16 -7 -13 25 -38 48 -39 9 0
21 7 26 16 8 15 10 15 16 -1 4 -11 -2 -23 -16 -35 -20 -16 -25 -16 -38 -5 -23
21 -49 2 -33 -24 13 -21 8 -31 -19 -31 -11 0 -18 -7 -18 -20 0 -14 -6 -20 -17
-18 -12 2 -19 -4 -21 -19 -4 -27 -33 -31 -53 -6 -8 9 -9 14 -3 10 6 -4 19 2
29 13 17 19 17 20 0 26 -11 5 -21 1 -27 -9 -5 -10 -16 -17 -23 -17 -8 0 -15
-4 -15 -10 0 -5 5 -10 10 -10 6 0 10 -4 10 -10 0 -18 -22 -10 -27 10 -6 21
-28 27 -38 10 -6 -9 -41 -5 -54 6 -1 1 8 15 22 30 26 28 44 97 27 102 -6 2
-10 10 -10 18 0 9 -11 14 -30 14 -37 0 -41 -25 -5 -34 31 -8 33 -32 4 -39 -14
-4 -20 -11 -16 -21 3 -8 -1 -20 -9 -27 -8 -7 -13 -18 -10 -24 3 -9 -7 -10 -39
-4 -24 4 -57 4 -74 -1 -42 -12 -113 -69 -104 -83 3 -7 3 -9 -2 -5 -4 4 -20 -1
-34 -11 -44 -30 -60 -33 -53 -8 5 22 5 22 -21 -2 -25 -23 -26 -23 -20 -2 4 15
1 21 -11 21 -23 0 -31 -26 -18 -66 7 -25 7 -36 -2 -44 -7 -5 -16 -7 -19 -3
-10 9 -37 -18 -37 -37 0 -10 8 -21 18 -23 9 -3 3 -5 -15 -6 -17 0 -38 6 -47
14 -23 23 -29 18 -22 -20 4 -19 3 -35 -1 -35 -4 0 -35 18 -68 40 -58 39 -82
49 -71 31 8 -12 -46 -11 -61 1 -7 6 -20 8 -28 4 -12 -4 -13 -10 -3 -31 11 -25
28 -34 28 -15 0 5 7 7 15 4 8 -4 26 1 39 10 22 14 25 14 38 -1 10 -13 10 -15
0 -9 -7 4 -18 3 -25 -2 -7 -6 -16 -10 -22 -9 -5 1 -11 -6 -13 -15 -3 -15 4
-18 33 -18 30 0 36 3 31 16 -6 15 -4 15 10 3 10 -8 12 -15 5 -17 -12 -4 -15
-52 -3 -52 4 0 12 3 18 8 5 4 1 -1 -10 -11 -19 -18 -20 -18 -28 3 -4 12 -13
18 -18 15 -8 -5 -7 -12 2 -23 10 -12 10 -16 1 -19 -27 -9 -13 -32 20 -31 35 1
60 15 51 29 -8 14 29 10 49 -5 22 -17 17 -67 -18 -171 -43 -127 -103 -188
-199 -201 -44 -5 -86 44 -86 102 0 39 3 46 26 54 21 8 24 13 15 24 -7 8 -20
12 -31 9 -16 -4 -20 3 -26 43 -5 33 -3 49 5 52 21 7 11 22 -14 22 -14 0 -25 4
-25 9 0 5 8 8 18 7 9 0 17 6 17 14 0 27 -33 22 -65 -10 -32 -31 -65 -35 -54
-6 3 8 -3 19 -14 25 -32 17 -71 -6 -42 -24 6 -4 8 -11 5 -16 -10 -15 -22 -10
-28 12 -5 19 -11 21 -42 15 -20 -4 -44 -10 -52 -13 -11 -4 -14 -2 -9 5 4 7 2
12 -4 12 -7 0 -9 -8 -5 -19 5 -15 2 -18 -13 -14 -13 3 -25 -3 -36 -18 -14 -20
-19 -22 -36 -11 -23 14 -47 16 -52 3 -4 -12 -48 -24 -48 -13 0 5 -12 7 -26 4
-17 -3 -25 -1 -21 6 4 5 0 12 -7 15 -8 3 -16 1 -18 -5 -5 -13 -67 12 -93 38
-13 13 -17 14 -13 4 8 -26 80 -68 158 -92 66 -20 95 -23 243 -23 190 0 180 4
197 -85 6 -30 13 -65 15 -77 4 -16 -3 -26 -30 -42 -19 -11 -35 -27 -35 -35 0
-35 95 -304 116 -329 13 -16 24 -39 24 -53 0 -20 7 -26 45 -35 25 -6 47 -14
49 -18 5 -7 416 -2332 416 -2350 0 -7 -10 -5 -25 5 -25 16 -25 16 -25 -18 0
-45 17 -67 95 -123 191 -136 448 -211 840 -246 310 -27 743 20 985 106 54 19
201 98 250 133 78 57 110 95 110 129 0 38 -2 39 -36 16 -25 -16 -25 -16 -20 8
4 13 96 537 206 1164 110 627 202 1150 205 1161 3 15 18 25 49 34 35 9 46 18
51 39 3 14 18 38 32 53 33 35 155 306 148 328 -6 19 -62 50 -90 50 -15 0 -17
6 -11 40 15 95 29 143 48 162 17 17 27 18 81 11 98 -13 216 -8 292 11 78 19
186 73 193 96 4 12 1 12 -14 -2 -27 -24 -94 -51 -94 -38 0 5 -7 10 -15 10 -8
0 -12 -6 -9 -14 4 -11 -7 -14 -51 -15 -49 0 -55 2 -45 14 10 12 9 15 -9 15
-12 0 -30 -6 -42 -12 -17 -11 -22 -10 -37 10 -11 14 -24 21 -34 17 -9 -4 -19
-2 -23 4 -3 6 -17 11 -30 11 -13 0 -25 5 -27 11 -5 16 -48 1 -48 -17 0 -8 -10
-14 -22 -14 -21 0 -21 1 -3 13 21 16 13 37 -14 37 -22 0 -45 -25 -36 -40 3 -6
-3 -10 -14 -10 -12 0 -21 5 -21 10 0 6 -7 10 -15 10 -8 0 -15 7 -15 15 0 9 -9
15 -24 15 -34 0 -42 -18 -14 -29 l23 -9 -27 -7 c-29 -7 -37 -20 -17 -27 8 -3
10 -19 5 -51 -7 -43 -9 -47 -30 -41 -34 8 -44 -24 -11 -36 21 -8 25 -16 25
-47 0 -61 -9 -79 -48 -98 l-37 -17 19 20 c29 33 -6 58 -44 31 -12 -8 -10 -9 7
-4 26 7 38 -8 18 -25 -8 -7 -13 -16 -10 -20 8 -14 -34 1 -46 16 -6 8 -20 14
-31 14 -15 0 -19 -6 -16 -27 3 -25 7 -28 36 -25 37 4 39 0 12 -36 -19 -26 -19
-72 1 -72 14 0 10 -30 -3 -31 -17 -1 -41 -5 -112 -20 -52 -11 -59 -10 -67 4
-11 18 -39 12 -39 -9 0 -8 -7 -14 -15 -14 -8 0 -15 7 -15 15 0 8 -9 15 -20 15
-13 0 -20 -7 -20 -20 0 -11 -4 -20 -10 -20 -5 0 -11 9 -11 20 -1 11 -2 24 -3
29 -1 12 -44 44 -79 59 -23 10 -26 16 -21 37 5 21 2 27 -15 32 -14 4 -20 11
-17 20 3 8 6 19 6 24 0 5 5 9 11 9 5 0 7 -4 4 -10 -8 -12 51 -100 68 -101 20
-1 51 -6 66 -10 8 -2 17 4 19 14 4 21 -27 35 -38 17 -4 -7 -15 -10 -25 -7 -9
4 -13 11 -10 17 3 6 0 13 -9 16 -8 3 -19 19 -25 36 -7 20 -15 27 -23 22 -9 -6
-9 -3 1 9 11 15 11 22 -2 50 -16 32 -16 32 11 37 15 3 29 2 30 -2 7 -15 31 -8
42 11 7 14 6 21 -3 24 -8 3 -5 12 11 29 12 13 22 30 22 36 0 16 -27 15 -33 0
-4 -10 -6 -10 -6 0 -1 19 38 92 49 92 6 0 10 8 10 18 1 19 30 63 30 44 0 -18
37 -14 44 4 4 9 9 14 13 11 3 -4 13 -1 21 5 16 14 56 22 48 10 -15 -24 46 -49
75 -31 10 6 10 11 0 22 -8 10 -9 17 -1 22 13 8 13 25 0 25 -5 0 -10 -7 -10
-15 0 -8 -6 -15 -13 -15 -20 0 -53 27 -44 36 4 5 12 2 16 -5 12 -19 30 -5 24
19 -3 11 -10 17 -15 13 -6 -3 -9 0 -6 7 6 18 29 26 26 8 -2 -8 8 -14 24 -16
22 -3 30 2 38 22 9 25 30 36 30 16 0 -19 17 -10 29 17 16 35 2 47 -34 29 -28
-15 -59 -11 -49 6 10 16 -69 -28 -126 -71 -54 -41 -70 -48 -70 -33 0 5 -25 36
-55 69 -64 71 -142 125 -310 212 -66 35 -126 68 -132 73 -21 17 -15 55 21 147
53 130 69 262 45 369 -5 28 -17 58 -25 68 -15 18 -15 18 -6 -1 15 -33 25 -118
13 -110 -6 3 -11 -1 -11 -10 0 -9 5 -13 11 -9 8 4 8 1 1 -13 -6 -10 -10 -25
-10 -33 2 -38 -3 -51 -19 -48 -15 2 -18 -4 -18 -36 0 -30 -4 -40 -19 -42 -34
-5 -43 -24 -21 -41 20 -15 20 -15 -2 -8 -18 5 -25 1 -35 -19 -6 -14 -15 -26
-20 -26 -11 0 -10 -48 2 -55 6 -3 10 -14 10 -23 -1 -16 -1 -16 -11 1 -13 23
-36 22 -44 -3 -8 -24 1 -40 21 -40 8 0 14 -9 14 -20 0 -11 -7 -20 -15 -20 -8
0 -15 -3 -15 -8 0 -4 -10 -12 -22 -17 -13 -6 -24 -20 -26 -31 -6 -40 -135 -73
-149 -38 -3 9 -12 13 -21 9 -22 -8 -31 12 -22 46 5 15 11 59 14 96 6 64 5 66
-7 33 -13 -32 -14 -33 -20 -11 -3 13 -10 20 -15 17 -6 -3 -12 1 -16 9 -3 8
-10 15 -16 15 -15 0 -12 -33 5 -56 13 -16 16 -17 25 -4 9 12 11 12 8 -5 -3
-15 -10 -19 -31 -17 -33 4 -35 -13 -4 -39 l22 -20 -25 12 c-44 20 -52 30 -39
46 7 7 9 17 5 21 -4 4 -12 -1 -17 -10 -5 -10 -16 -15 -23 -12 -17 6 -31 -12
-16 -21 5 -3 10 -15 10 -26 0 -19 9 -23 43 -20 9 1 17 -1 18 -6 6 -68 4 -76
-31 -97 -19 -12 -55 -30 -80 -40 -25 -10 -52 -22 -60 -26 -9 -4 -30 -11 -48
-14 -17 -4 -34 -12 -37 -17 -4 -5 -14 -9 -24 -9 -14 0 -17 6 -13 25 2 15 0 25
-7 25 -6 0 -11 10 -11 22 0 20 -1 20 -19 4 -11 -10 -22 -13 -25 -8 -7 11 -46
4 -46 -8 0 -4 7 -11 16 -14 23 -9 -1 -36 -29 -33 -12 1 -21 -3 -20 -10 3 -12
-47 -33 -78 -33 -11 0 -19 4 -19 10 0 11 -32 1 -42 -14 -5 -8 -17 -7 -38 1
-17 7 -39 9 -47 6 -10 -4 -14 -2 -9 5 3 6 1 14 -5 18 -8 4 -9 3 -5 -4 8 -13
-16 -17 -67 -13 -21 2 -30 -3 -34 -18 -6 -25 -21 -28 -19 -4 0 10 -8 19 -18
21 -23 5 -47 -23 -39 -44 7 -18 -15 -18 -51 1 -41 21 -66 19 -66 -6 0 -16 4
-19 23 -14 21 6 21 6 3 -9 -11 -9 -23 -16 -28 -16 -4 0 -8 -5 -8 -11 0 -6 6
-9 14 -6 10 4 16 -5 20 -27 8 -39 -3 -71 -24 -71 -8 0 -16 -8 -18 -17 -3 -13
3 -18 21 -18 20 0 25 -6 31 -37 10 -65 7 -89 -17 -111 l-24 -22 5 30 c3 19 0
30 -8 30 -18 0 -50 -20 -50 -30 0 -6 9 -5 20 2 25 16 35 5 18 -21 -14 -23 -38
-27 -55 -10 -18 18 -45 2 -41 -23 3 -20 8 -23 41 -20 42 3 42 4 23 -33 -11
-22 -12 -32 -3 -46 7 -11 17 -19 24 -19 16 0 20 -39 8 -68 -5 -13 -22 -26 -36
-29 -15 -3 -32 -16 -38 -29 -11 -26 -3 -32 17 -12 9 9 15 9 23 1 8 -8 5 -15
-12 -26 -20 -12 -35 -13 -92 -3 l-67 11 16 23 c18 27 12 54 -11 46 -8 -4 -15
-11 -14 -18 1 -6 -3 -24 -9 -39 -15 -36 -16 -34 11 -41 14 -3 23 -13 23 -26 0
-11 -3 -20 -6 -19 -19 2 -45 18 -46 28 -1 6 -2 16 -3 21 -1 13 -38 13 -46 0
-3 -5 -12 -7 -21 -3 -13 5 -13 7 1 23 13 14 14 22 5 42 -11 24 -72 54 -88 44
-15 -9 -36 13 -37 36 0 16 -7 24 -22 26 -13 2 -23 10 -23 18 0 22 13 17 52
-21 33 -33 40 -35 85 -32 33 3 49 9 51 20 5 27 -20 31 -38 7 -17 -23 -40 -20
-40 5 0 7 -9 16 -19 20 -10 3 -21 15 -24 25 -3 14 -10 18 -21 14 -12 -5 -15
-2 -9 11 4 11 0 22 -8 29 -9 6 -18 18 -21 27 -8 20 30 40 60 33 14 -4 21 0 25
15 3 14 0 21 -9 21 -18 0 -18 10 2 38 9 13 13 30 9 40 -6 15 -8 15 -22 -3 -14
-19 -15 -17 -9 29 3 28 13 54 23 61 9 7 13 17 9 23 -4 6 -4 23 0 38 6 22 8 24
16 11 9 -16 38 -13 38 5 0 12 52 57 68 58 6 0 12 -7 12 -16 0 -13 7 -15 38 -9
45 8 48 11 33 28 -6 8 -9 22 -5 31 3 9 2 16 -4 16 -5 0 -12 -9 -15 -19 -3 -14
-11 -18 -26 -14 -12 3 -24 10 -27 15 -4 6 2 8 15 3 17 -5 21 -2 21 14 0 12 -7
21 -15 21 -19 0 -19 14 0 30 13 11 14 10 9 -4 -7 -19 16 -22 47 -6 28 16 23
25 -18 36 l-37 9 30 34 c17 19 37 32 47 30 24 -6 5 -32 -24 -34 -13 -1 -24 -6
-26 -12 -6 -18 36 -26 54 -11 12 9 15 9 9 1 -4 -7 -2 -13 4 -13 13 0 29 40 22
58 -3 9 2 11 19 8 119 -26 292 -58 332 -61 27 -2 51 -6 54 -9 4 -3 27 -6 53
-6 39 0 49 4 60 25 12 23 27 30 56 26 27 -3 64 19 64 39 0 28 29 25 40 -5 11
-28 14 -29 41 -15 27 15 24 27 -11 45 -25 13 -30 21 -27 43 5 35 33 37 30 2
l-2 -25 11 23 c9 18 8 26 -4 39 -20 20 -35 10 -47 -30 l-9 -32 -1 43 c-1 56
11 78 59 102 48 24 66 25 74 3 6 -15 8 -15 23 0 15 15 15 18 -2 37 -16 18 -16
20 -2 20 10 0 17 4 17 9 0 5 13 16 29 24 25 12 29 12 39 -2 9 -13 11 -8 6 24
-6 38 -5 39 9 20 12 -16 18 -17 28 -8 10 10 9 17 -5 32 -10 11 -21 20 -25 20
-3 -1 -16 2 -28 6 -29 9 -36 32 -12 38 23 6 25 39 4 57 -17 14 -35 5 -35 -18
0 -15 -2 -15 -10 -2 -6 9 -6 18 0 24 14 14 12 44 -4 53 -20 12 -40 53 -25 53
7 0 9 3 6 6 -4 4 -19 -1 -34 -11 -23 -15 -26 -16 -15 -2 16 19 8 37 -18 37
-23 0 -34 16 -34 50 -1 18 -6 24 -19 22 -17 -3 -40 35 -30 51 2 4 -1 7 -6 7
-6 0 -11 7 -11 15 0 8 4 15 10 15 5 0 7 7 4 15 -4 8 -10 12 -15 9 -5 -3 -9 9
-9 26 0 27 2 29 19 21 24 -13 33 -4 20 21 -6 12 -17 17 -26 14 -12 -5 -14 -1
-9 19 7 26 2 33 -9 14z m228 -562 c1 -33 -19 -74 -31 -62 -3 2 1 11 8 20 12
15 10 51 -5 90 -7 19 -7 19 10 4 9 -9 17 -32 18 -52z m-60 -87 c-9 -11 -19
-17 -21 -15 -6 6 18 35 29 35 5 0 1 -9 -8 -20z m-415 -12 c20 -20 14 -28 -13
-16 -13 6 -22 15 -19 19 7 12 18 11 32 -3z m47 -19 c4 -6 15 -13 26 -17 12 -5
15 -12 10 -20 -6 -11 -14 -8 -35 11 -14 13 -26 27 -26 31 0 10 18 7 25 -5z
m1071 -84 c-3 -9 0 -15 9 -15 9 0 15 -9 15 -21 0 -15 -4 -19 -16 -15 -17 6
-44 -9 -44 -25 0 -5 9 -9 20 -9 27 0 25 -16 -4 -36 -14 -8 -23 -21 -21 -27 5
-17 -67 -76 -73 -59 -5 16 -32 -3 -32 -23 0 -17 -26 -26 -56 -19 -13 3 -24 2
-24 -3 0 -5 -22 -15 -50 -23 -48 -13 -70 -36 -55 -60 10 -16 -7 -11 -19 6 -7
9 -18 12 -28 9 -21 -8 -35 -48 -20 -53 6 -2 9 -9 6 -17 -4 -9 -18 -12 -44 -10
-41 4 -78 -15 -66 -34 5 -8 13 -8 27 -1 23 13 26 -2 4 -20 -20 -17 -19 -32 3
-28 11 2 23 -10 36 -36 17 -35 18 -39 2 -48 -9 -5 -16 -16 -16 -25 0 -11 6
-14 25 -9 21 5 29 0 55 -35 30 -42 35 -63 24 -93 -5 -13 -9 -13 -23 5 -16 20
-18 20 -34 4 -9 -9 -17 -24 -17 -33 0 -13 4 -11 16 7 21 30 38 14 25 -22 -9
-23 -15 -26 -41 -21 -36 8 -52 -18 -27 -43 14 -14 17 -14 38 1 34 23 40 20 36
-19 -3 -25 0 -35 9 -35 8 0 14 -5 14 -11 0 -6 9 -9 19 -6 41 10 56 -79 16 -97
-15 -7 -21 -18 -21 -43 0 -18 1 -33 3 -33 1 0 8 12 16 26 11 21 15 23 25 12 9
-11 8 -19 -4 -36 -8 -12 -20 -20 -25 -16 -5 3 -16 0 -24 -6 -8 -6 -19 -9 -24
-5 -6 3 -25 -2 -42 -11 l-32 -16 7 36 c4 23 3 36 -4 36 -5 0 -13 0 -17 0 -8 0
-9 -9 -12 -54 -1 -19 -1 -19 -15 -1 -12 17 -16 17 -30 5 -11 -8 -45 -14 -97
-15 -43 0 -79 0 -79 1 0 1 -3 9 -6 17 -4 13 2 14 33 10 28 -4 42 -1 52 11 7 9
20 16 28 16 8 0 13 7 11 18 -4 22 -33 23 -32 0 2 -22 -25 -32 -33 -12 -3 9
-12 13 -21 9 -8 -3 -26 2 -40 11 -22 15 -26 15 -41 -1 -15 -15 -15 -17 2 -26
20 -12 23 -29 5 -29 -7 0 -18 11 -24 24 -9 20 -9 26 2 30 20 7 17 36 -2 36 -9
0 -23 8 -30 18 -10 14 -10 20 3 35 9 9 24 17 35 17 24 0 23 30 -1 37 -16 4
-18 11 -14 44 5 32 3 39 -11 39 -9 0 -16 -8 -16 -17 -1 -43 -22 21 -23 68 0
27 -4 49 -9 49 -4 0 -8 11 -8 25 0 14 3 24 8 24 23 -4 32 4 32 26 0 14 5 25
10 25 6 0 10 9 10 19 0 26 15 34 38 20 15 -9 23 -7 45 13 30 28 34 38 13 38
-7 0 -16 9 -19 21 -3 12 -10 18 -17 14 -8 -5 -8 -11 -1 -19 6 -7 8 -16 4 -19
-10 -11 -65 -8 -58 3 3 5 13 6 21 3 12 -4 15 -1 12 13 -2 11 -11 18 -21 18
-12 -1 -17 5 -16 25 1 17 3 20 6 9 6 -23 12 -22 43 2 19 14 22 22 13 31 -6 6
-17 8 -24 3 -18 -11 -49 -13 -49 -2 0 4 4 8 9 8 5 0 22 5 38 12 15 6 33 12 38
13 6 0 9 5 8 10 -10 64 -21 57 142 92 193 42 249 59 310 94 58 33 205 158 205
174 0 11 20 35 28 35 2 0 2 -7 -2 -15z m-916 -34 c0 -12 -20 -25 -27 -18 -7 7
6 27 18 27 5 0 9 -4 9 -9z m-20 -46 c0 -8 -4 -15 -9 -15 -13 0 -22 16 -14 24
11 11 23 6 23 -9z m-33 -11 c12 -12 14 -20 6 -33 -16 -25 -28 -19 -31 17 -4
36 2 39 25 16z m1043 -44 c0 -15 -5 -12 -26 11 -19 22 -19 22 4 10 12 -6 22
-16 22 -21z m-30 -14 c0 -3 -4 -8 -10 -11 -5 -3 -10 -1 -10 4 0 6 5 11 10 11
6 0 10 -2 10 -4z m14 -43 c16 21 42 22 89 2 39 -16 57 -40 57 -76 0 -19 4 -21
30 -15 24 4 30 2 30 -12 0 -37 14 -45 59 -31 45 13 51 36 8 31 -26 -3 -39 9
-44 41 -2 10 3 17 12 17 8 0 15 -6 15 -13 0 -8 11 -19 24 -25 32 -14 85 -84
68 -90 -13 -4 -17 -34 -5 -45 3 -4 12 -2 20 4 7 7 13 7 13 2 0 -5 -11 -15 -24
-21 -21 -9 -25 -8 -29 10 -3 11 -10 17 -17 13 -8 -5 -8 -11 1 -21 9 -11 9 -17
0 -28 -14 -17 0 -29 23 -20 29 11 17 -14 -20 -43 -20 -15 -46 -27 -58 -28 -14
0 -21 -6 -20 -17 1 -10 -12 -28 -30 -41 -38 -29 -86 -43 -86 -25 0 7 -3 30 -6
51 -6 30 -4 37 10 37 10 0 14 5 11 10 -3 6 -15 10 -25 10 -10 0 -22 5 -25 11
-4 6 0 9 11 7 25 -4 25 26 1 30 -10 2 -30 -8 -44 -22 -31 -31 -53 -34 -53 -7
0 21 -32 37 -51 26 -6 -4 -9 -16 -6 -26 6 -24 -9 -25 -21 -2 -9 15 -16 15 -58
5 -27 -7 -58 -14 -69 -17 -11 -3 -25 -12 -31 -20 -27 -37 -66 -4 -46 39 9 20
20 24 80 29 82 8 153 36 176 69 9 12 13 24 9 25 -5 0 -21 4 -36 7 -15 4 -25
11 -22 16 3 6 2 18 -4 27 -12 23 17 76 38 68 8 -3 18 0 23 7 12 19 10 28 -7
28 -9 0 -15 9 -15 22 0 21 0 21 15 2 14 -18 16 -18 29 -1z m-771 -71 c16 -18
15 -20 -27 -50 -27 -19 -53 -50 -66 -77 -19 -40 -25 -44 -47 -39 -22 6 -24 4
-21 -17 2 -13 9 -23 16 -21 10 2 11 -4 7 -20 -10 -33 -25 -46 -25 -21 0 26
-26 48 -43 37 -7 -5 -5 -2 5 8 10 9 18 19 18 22 0 18 120 146 136 146 8 0 14
8 14 18 0 16 8 32 15 32 1 0 9 -8 18 -18z m1166 -42 c12 -17 18 -30 13 -30
-10 0 -62 53 -62 63 0 14 28 -5 49 -33z m296 -20 c-3 -5 1 -10 9 -10 9 0 16
-4 16 -10 0 -13 -17 -13 -25 0 -3 5 -13 6 -23 3 -15 -6 -15 -5 -3 10 14 18 36
24 26 7z m-1491 -57 c-26 -19 -29 -8 -8 24 16 25 19 26 22 9 2 -11 -4 -25 -14
-33z m-493 5 c-39 -11 -61 -30 -61 -52 0 -9 -4 -16 -10 -16 -20 0 -9 29 21 54
17 15 42 26 57 25 25 -1 25 -2 -7 -11z m856 -49 c-20 -15 -27 -30 -27 -57 -1
-30 -3 -34 -11 -20 -12 22 11 81 37 96 30 17 30 4 1 -19z m-920 -66 c-3 -10
-5 -4 -5 12 0 17 2 24 5 18 2 -7 2 -21 0 -30z m373 -55 c0 -5 -4 -8 -10 -8 -5
0 -10 10 -10 23 0 18 2 19 10 7 5 -8 10 -18 10 -22z m549 -13 c0 -5 -4 -3 -9
5 -5 8 -9 22 -9 30 0 16 17 -16 18 -35z m508 1 c16 -14 24 -28 19 -33 -5 -4
-11 -2 -13 5 -8 20 -62 44 -85 36 -14 -4 -18 -2 -14 5 12 19 64 12 93 -13z
m909 -17 c-24 -4 -48 -16 -59 -30 -17 -22 -19 -22 -16 -4 5 25 63 55 92 47 18
-5 15 -7 -17 -13z m-1916 -4 c0 -8 -4 -15 -10 -15 -5 0 -10 7 -10 15 0 8 5 15
10 15 6 0 10 -7 10 -15z m-1470 -20 c20 -10 30 -23 29 -38 l0 -22 -11 21 c-13
27 -54 47 -80 38 -14 -4 -18 -2 -14 5 10 15 42 14 76 -4z m2509 -58 c1 -5 -3
-5 -9 -2 -5 3 -10 16 -9 28 0 21 1 21 9 2 5 -11 9 -24 9 -28z m802 -8 c-5 -13
-10 -19 -10 -12 -1 15 10 45 15 40 3 -2 0 -15 -5 -28z m-1912 -3 c15 -18 -6
-58 -28 -54 -24 5 -36 34 -22 52 17 20 35 20 50 2z m-1355 -32 c3 -8 2 -12 -4
-9 -6 3 -10 10 -10 16 0 14 7 11 14 -7z m1036 -60 c0 -16 -16 -19 -25 -4 -8
13 4 32 16 25 5 -4 9 -13 9 -21z m290 21 c0 -10 -66 -39 -83 -36 -9 1 -20 -5
-23 -13 -3 -9 -13 -16 -21 -16 -11 0 -13 -7 -9 -24 7 -27 0 -37 -20 -29 -9 3
-11 15 -7 36 7 37 28 60 68 75 31 11 95 16 95 7z m733 -39 c6 -16 -2 -28 -14
-20 -12 7 -11 34 0 34 5 0 11 -6 14 -14z m-1593 -16 c0 -5 -5 -10 -11 -10 -5
0 -7 5 -4 10 3 6 8 10 11 10 2 0 4 -4 4 -10z m545 -10 c-5 -15 -2 -20 11 -20
16 0 16 -1 -1 -20 -10 -11 -24 -20 -32 -20 -7 0 -13 9 -13 20 0 11 5 20 11 20
6 0 8 9 4 20 -5 14 -2 20 10 20 12 0 15 -6 10 -20z m1045 -25 c0 -8 7 -15 15
-15 19 0 19 -24 0 -40 -19 -15 -37 -3 -30 20 3 10 1 21 -5 25 -6 3 -8 11 -5
16 9 14 25 11 25 -6z m-1024 -119 c-25 -51 -76 -110 -76 -89 0 6 16 34 35 63
19 29 38 64 41 79 10 40 19 49 22 23 2 -13 -8 -47 -22 -76z m1098 68 c10 -26
7 -104 -6 -145 -14 -47 -30 -52 -20 -6 4 17 7 62 7 100 0 65 7 83 19 51z m279
-30 c-1 -34 -11 -147 -15 -180 -2 -14 -99 -27 -110 -16 -5 5 -11 22 -13 38 -3
16 -8 43 -10 59 -3 17 -2 35 2 41 11 14 102 74 114 74 5 0 9 7 9 16 0 9 6 14
13 11 7 -2 11 -19 10 -43z m-1214 -4 c4 -3 15 -18 25 -35 13 -20 15 -26 4 -18
-8 7 -18 10 -21 6 -4 -3 -7 3 -7 14 0 19 -24 38 -42 35 -5 -1 -8 4 -8 12 0 20
34 25 39 6 2 -8 6 -17 10 -20z m2031 -14 c0 -8 -4 -18 -10 -21 -5 -3 -10 3
-10 14 0 12 5 21 10 21 6 0 10 -6 10 -14z m-2677 -28 c7 -25 3 -33 -12 -23
-13 8 -15 45 -2 45 5 0 11 -10 14 -22z m2648 -13 c0 -6 -10 -17 -22 -25 -21
-13 -22 -13 -14 0 5 8 10 18 11 23 1 4 2 10 3 13 2 9 23 -1 22 -11z m-2628
-56 c21 -38 22 -49 2 -49 -8 0 -15 9 -15 19 0 11 -4 23 -10 26 -12 7 -14 35
-2 35 4 0 15 -14 25 -31z m2137 6 c0 -14 -4 -25 -10 -25 -5 0 -10 11 -10 25 0
14 5 25 10 25 6 0 10 -11 10 -25z m-1501 2 c8 -11 6 -18 -9 -32 -25 -23 -42
-9 -29 23 10 25 22 28 38 9z m-49 -6 c0 -6 -4 -13 -10 -16 -5 -3 -10 1 -10 9
0 9 5 16 10 16 6 0 10 -4 10 -9z m1550 -41 c0 -5 -7 -10 -15 -10 -8 0 -15 5
-15 10 0 6 7 10 15 10 8 0 15 -4 15 -10z m-1422 -12 c-5 -15 -88 -24 -88 -9 0
5 15 12 33 14 17 2 38 5 45 5 8 1 12 -4 10 -10z m-625 -5 c-7 -2 -19 -2 -25 0
-7 3 -2 5 12 5 14 0 19 -2 13 -5z m67 -3 c12 -8 11 -10 -7 -10 -12 0 -25 5
-28 10 -8 13 15 13 35 0z m150 -10 c0 -5 -7 -10 -16 -10 -8 0 -12 5 -9 10 3 6
10 10 16 10 5 0 9 -4 9 -10z m243 -17 c-7 -2 -19 -2 -25 0 -7 3 -2 5 12 5 14
0 19 -2 13 -5z m-755 -267 c2 -2 52 -325 112 -718 60 -392 142 -931 183 -1198
41 -267 73 -487 72 -488 -6 -6 -74 19 -80 29 -4 5 -69 359 -146 787 -77 427
-173 963 -214 1189 -41 227 -75 416 -75 421 0 8 138 -13 148 -22z m2606 -323
c-34 -192 -92 -512 -128 -713 -36 -201 -105 -584 -153 -852 l-88 -487 -37 -17
c-21 -9 -41 -15 -44 -11 -3 3 40 301 95 664 55 362 137 897 181 1188 44 292
82 535 85 542 4 12 71 30 121 32 l30 1 -62 -347z m-2331 292 c26 -4 47 -11 47
-17 0 -6 59 -554 130 -1218 72 -664 130 -1209 130 -1212 0 -10 -102 26 -106
37 -4 10 -314 2398 -314 2416 0 6 14 8 33 5 17 -3 53 -8 80 -11z m2080 -15
c-3 -24 -119 -927 -243 -1885 -33 -253 -62 -474 -65 -491 -4 -26 -12 -32 -55
-46 l-50 -16 0 28 c0 15 18 196 40 401 22 206 63 583 91 839 114 1062 126
1171 132 1176 7 7 113 22 137 20 10 -1 14 -10 13 -26z m-1725 -16 c40 -4 52
-9 52 -22 -1 -22 62 -986 64 -989 1 -1 34 10 74 24 l72 26 0 49 c0 46 -33 627
-45 811 l-7 88 99 -3 98 -3 7 -355 c5 -195 11 -400 14 -456 l6 -101 56 5 c32
2 58 5 59 6 1 1 -2 202 -7 446 -5 245 -7 447 -4 449 8 9 114 13 150 7 l37 -7
-8 -450 -7 -449 38 0 c22 0 48 -3 60 -6 21 -6 21 -4 28 263 3 147 9 355 12
461 l7 192 93 0 94 0 0 -57 c0 -32 -11 -244 -25 -472 -14 -228 -24 -415 -23
-416 12 -8 143 -54 146 -51 5 6 8 42 42 559 16 242 31 441 33 444 7 6 188 20
191 13 2 -3 -23 -257 -56 -565 -52 -492 -58 -566 -47 -612 11 -46 10 -55 -10
-95 -18 -37 -30 -132 -81 -618 -59 -565 -63 -589 -96 -590 -6 0 -25 -3 -40 -6
l-29 -6 31 479 c18 263 34 505 35 539 l4 60 -75 -24 c-41 -14 -76 -26 -77 -26
-1 -1 -15 -237 -32 -525 -17 -289 -32 -525 -34 -526 -1 -1 -26 -5 -56 -8 l-54
-6 6 182 c4 100 10 335 13 521 l7 339 -54 -7 c-29 -4 -56 -10 -59 -12 -2 -3
-8 -231 -13 -507 -4 -276 -10 -508 -12 -514 -3 -8 -22 -13 -48 -13 l-44 0 -6
152 c-4 83 -7 215 -7 293 0 78 -3 243 -7 367 l-6 226 -54 7 c-30 4 -56 5 -58
3 -2 -2 1 -233 8 -513 7 -281 10 -513 7 -517 -3 -4 -28 -4 -55 0 l-50 7 -30
522 c-16 287 -32 524 -35 526 -11 11 -150 53 -150 45 0 -4 16 -245 35 -534 20
-290 34 -528 32 -530 -2 -3 -27 1 -56 7 -48 10 -51 13 -51 41 0 68 -111 1095
-121 1123 -6 17 -17 46 -24 65 -10 27 -10 42 -1 75 10 34 5 112 -40 545 -29
278 -56 535 -60 571 l-6 67 48 -4 c27 -3 73 -7 102 -10z"/>
<path d="M6460 7385 c-11 -13 -10 -14 4 -9 9 3 16 10 16 15 0 13 -6 11 -20 -6z"/>
<path d="M6360 7330 c0 -5 7 -10 15 -10 8 0 15 5 15 10 0 6 -7 10 -15 10 -8 0
-15 -4 -15 -10z"/>
<path d="M5960 7220 c0 -5 7 -10 15 -10 8 0 15 5 15 10 0 6 -7 10 -15 10 -8 0
-15 -4 -15 -10z"/>
<path d="M6000 7220 c0 -5 4 -10 9 -10 6 0 13 5 16 10 3 6 -1 10 -9 10 -9 0
-16 -4 -16 -10z"/>
<path d="M5915 7211 c-7 -12 12 -24 25 -16 11 7 4 25 -10 25 -5 0 -11 -4 -15
-9z"/>
<path d="M6010 7090 c0 -13 5 -20 13 -17 6 2 12 10 12 17 0 7 -6 15 -12 18 -8
2 -13 -5 -13 -18z"/>
<path d="M5960 7005 c0 -8 7 -15 15 -15 8 0 15 7 15 15 0 8 -7 15 -15 15 -8 0
-15 -7 -15 -15z"/>
<path d="M6010 6980 c0 -13 7 -20 19 -20 14 0 18 5 14 20 -3 11 -12 20 -19 20
-8 0 -14 -9 -14 -20z"/>
<path d="M6097 6945 c-8 -18 11 -31 25 -17 11 11 3 32 -12 32 -4 0 -10 -7 -13
-15z"/>
<path d="M5990 6890 c0 -11 7 -20 15 -20 8 0 15 9 15 20 0 11 -7 20 -15 20 -8
0 -15 -9 -15 -20z"/>
<path d="M6140 6901 c0 -5 5 -13 10 -16 6 -3 10 -2 10 4 0 5 -4 13 -10 16 -5
3 -10 2 -10 -4z"/>
<path d="M5794 6825 c-8 -19 2 -45 16 -45 5 0 10 14 10 30 0 31 -16 41 -26 15z"/>
<path d="M5900 6750 c0 -5 7 -10 16 -10 8 0 12 5 9 10 -3 6 -10 10 -16 10 -5
0 -9 -4 -9 -10z"/>
<path d="M6056 6734 c-3 -8 -10 -12 -16 -9 -11 7 -31 -35 -23 -48 3 -5 -4 -4
-15 2 -12 6 -25 19 -30 28 -11 19 -34 8 -30 -15 2 -9 15 -25 30 -34 24 -15 30
-15 55 -3 34 17 77 71 68 85 -9 15 -32 12 -39 -6z"/>
<path d="M5887 6723 c-8 -8 -9 -43 -1 -43 3 0 12 6 19 14 12 12 12 16 1 25 -7
6 -16 8 -19 4z"/>
<path d="M6166 6692 c-7 -12 3 -42 14 -42 16 0 19 17 6 35 -8 11 -15 14 -20 7z"/>
<path d="M6116 6675 c-3 -9 1 -18 10 -22 19 -7 28 2 21 22 -8 19 -23 19 -31 0z"/>
<path d="M6067 6643 c-13 -12 -7 -33 8 -33 8 0 15 9 15 20 0 20 -11 26 -23 13z"/>
<path d="M6130 6622 c0 -11 -7 -25 -15 -32 -8 -7 -12 -16 -9 -21 10 -16 33 -9
39 11 5 15 12 19 26 15 23 -8 38 20 20 38 -8 8 -14 8 -23 -1 -8 -8 -15 -9 -25
-1 -10 9 -13 7 -13 -9z"/>
<path d="M6147 6546 c-6 -14 0 -26 14 -26 3 0 9 9 12 20 6 23 -18 28 -26 6z"/>
<path d="M6035 6510 c-3 -5 1 -10 9 -10 9 0 16 5 16 10 0 6 -4 10 -9 10 -6 0
-13 -4 -16 -10z"/>
<path d="M6650 7310 c0 -5 7 -10 16 -10 8 0 12 5 9 10 -3 6 -10 10 -16 10 -5
0 -9 -4 -9 -10z"/>
<path d="M6743 7303 c-15 -5 -17 -49 -4 -57 5 -4 7 2 4 13 -7 27 16 36 25 10
5 -13 11 -18 15 -12 9 14 -25 52 -40 46z"/>
<path d="M6817 7244 c-8 -8 1 -24 14 -24 5 0 9 7 9 15 0 15 -12 20 -23 9z"/>
<path d="M6932 7226 c-30 -15 -22 -30 18 -34 27 -3 32 -1 26 13 -3 9 -6 21 -6
26 0 11 -8 10 -38 -5z"/>
<path d="M6770 7220 c0 -5 7 -10 15 -10 8 0 15 5 15 10 0 6 -7 10 -15 10 -8 0
-15 -4 -15 -10z"/>
<path d="M6746 7201 c-4 -5 -2 -12 3 -15 5 -4 12 -2 15 3 4 5 2 12 -3 15 -5 4
-12 2 -15 -3z"/>
<path d="M6817 7104 c-8 -8 3 -34 14 -34 5 0 9 9 9 20 0 19 -11 26 -23 14z"/>
<path d="M6390 7055 c0 -8 5 -15 10 -15 6 0 10 7 10 15 0 8 -4 15 -10 15 -5 0
-10 -7 -10 -15z"/>
<path d="M6905 7060 c-8 -13 4 -32 16 -25 12 8 12 35 0 35 -6 0 -13 -4 -16
-10z"/>
<path d="M6594 6585 c-4 -8 -12 -15 -20 -15 -8 0 -14 -7 -14 -15 0 -8 4 -15 8
-15 5 0 8 -10 8 -22 -1 -14 5 -23 14 -23 10 0 15 10 15 29 0 16 6 31 13 33 17
6 15 43 -3 43 -9 0 -18 -7 -21 -15z"/>
<path d="M6645 6559 c-4 -6 -5 -12 -2 -15 7 -7 37 7 37 17 0 13 -27 11 -35 -2z"/>
<path d="M5661 5084 c-20 -17 -31 -35 -31 -52 0 -22 -9 -31 -40 -45 -112 -52
-79 -227 43 -227 13 0 41 11 62 25 20 15 40 23 43 20 3 -3 30 18 60 47 48 47
52 49 38 21 -9 -18 -16 -38 -16 -46 0 -20 27 -29 51 -17 24 13 24 10 -3 -37
-34 -59 -49 -74 -71 -67 -14 4 -18 2 -15 -7 3 -8 16 -15 30 -17 19 -2 31 5 47
26 27 38 112 223 108 235 -1 5 -23 -16 -47 -47 -45 -56 -70 -76 -70 -53 1 7 7
23 15 37 17 30 19 60 3 60 -6 0 -26 -11 -44 -25 l-34 -26 10 26 c12 32 12 35
2 35 -5 0 -17 -17 -28 -37 -21 -43 -88 -110 -121 -123 -30 -12 -65 1 -92 36
-31 40 -27 80 13 120 34 34 59 41 86 25 25 -16 31 -1 10 26 -25 32 -25 45 -2
66 35 32 102 14 102 -27 0 -34 -23 -50 -50 -36 -11 6 -19 16 -18 23 2 7 -2 14
-7 17 -6 3 -11 -5 -13 -17 -4 -29 38 -58 73 -49 28 7 49 48 40 77 -9 26 -53
59 -81 59 -12 0 -36 -12 -53 -26z"/>
<path d="M5967 4993 c-12 -11 -8 -23 8 -23 8 0 15 7 15 15 0 16 -12 20 -23 8z"/>
<path d="M6116 4907 l-40 -42 -5 35 c-5 29 -11 36 -33 38 -22 3 -32 -4 -52
-37 -52 -82 -19 -130 49 -71 28 24 75 35 75 16 0 -24 26 -39 49 -26 12 6 21 8
21 5 0 -3 -21 -15 -46 -26 -54 -26 -79 -59 -70 -94 5 -20 13 -25 36 -25 25 0
36 8 60 47 16 26 32 54 35 64 3 9 18 22 34 29 33 13 98 77 88 86 -3 4 -23 -8
-43 -25 -20 -18 -39 -30 -42 -27 -3 3 3 24 13 46 10 22 15 43 11 47 -6 6 -22
-11 -87 -91 -9 -11 -21 -16 -28 -12 -9 6 -5 19 13 51 22 38 25 56 7 54 -3 0
-24 -19 -45 -42z m-66 -6 c0 -11 -4 -22 -9 -25 -12 -8 -34 21 -26 34 11 17 35
11 35 -9z m-30 -52 c0 -12 -29 -24 -37 -16 -3 4 -3 13 0 21 6 16 37 11 37 -5z
m140 -77 c0 -4 -13 -23 -29 -42 -23 -27 -32 -32 -42 -23 -9 9 -5 18 19 42 29
30 52 40 52 23z"/>
<path d="M3053 8253 c-32 -18 -56 -46 -146 -174 l-47 -67 190 -136 c105 -75
194 -136 199 -136 8 0 61 71 61 82 0 3 -32 29 -70 58 -42 31 -67 57 -63 63 3
7 15 24 25 39 l18 26 96 -26 c81 -22 98 -23 104 -11 5 8 20 30 35 49 l26 35
-73 18 c-156 39 -148 35 -148 67 0 55 -88 130 -152 130 -13 0 -38 -8 -55 -17z
m99 -128 c10 -22 7 -32 -26 -80 l-38 -54 -39 26 c-21 14 -39 28 -39 30 0 3 16
27 36 54 29 39 41 49 65 49 22 0 32 -7 41 -25z"/>
<path d="M5790 8144 c0 -13 18 -39 24 -34 2 3 -2 14 -10 24 -8 11 -14 16 -14
10z"/>
<path d="M6657 8041 c-3 -11 -2 -22 1 -25 8 -9 32 14 32 30 0 21 -27 17 -33
-5z"/>
<path d="M5845 8041 c-6 -11 9 -23 19 -14 9 9 7 23 -3 23 -6 0 -12 -4 -16 -9z"/>
<path d="M8905 7844 l-70 -126 -45 6 c-93 11 -230 18 -230 12 0 -4 11 -29 25
-56 27 -53 26 -53 144 -64 29 -3 56 -7 58 -10 3 -3 -14 -38 -36 -80 l-42 -74
28 -56 c15 -31 30 -56 33 -56 3 0 34 54 70 120 74 137 52 126 228 109 62 -6
116 -9 119 -6 3 3 -9 31 -27 61 l-31 56 -63 0 c-35 0 -77 3 -94 6 l-30 6 48
81 49 80 -30 59 c-16 32 -30 58 -32 58 -1 0 -34 -57 -72 -126z"/>
<path d="M6636 7895 c-9 -26 -7 -32 5 -12 6 10 9 21 6 23 -2 3 -7 -2 -11 -11z"/>
<path d="M2701 7731 c-39 -77 -71 -142 -71 -145 0 -7 405 -216 419 -216 11 0
51 70 51 89 0 6 -36 29 -80 51 -44 22 -80 44 -80 48 0 4 18 40 40 80 22 40 40
77 40 82 0 10 -79 54 -85 48 -1 -2 -21 -40 -44 -85 -23 -46 -44 -83 -47 -83
-5 0 -65 30 -72 35 -2 2 17 44 42 94 25 50 46 94 46 99 0 8 -63 42 -80 42 -5
0 -40 -63 -79 -139z"/>
<path d="M6590 7795 c0 -8 5 -15 10 -15 6 0 10 7 10 15 0 8 -4 15 -10 15 -5 0
-10 -7 -10 -15z"/>
<path d="M6125 7780 c3 -5 10 -10 16 -10 5 0 9 5 9 10 0 6 -7 10 -16 10 -8 0
-12 -4 -9 -10z"/>
<path d="M6166 7771 c-4 -7 -5 -15 -2 -18 9 -9 19 4 14 18 -4 11 -6 11 -12 0z"/>
<path d="M6196 7743 c-11 -11 -6 -23 9 -23 8 0 15 4 15 9 0 13 -16 22 -24 14z"/>
<path d="M4985 7719 c-4 -6 -5 -13 -2 -16 8 -7 47 7 47 18 0 13 -37 11 -45 -2z"/>
<path d="M6227 7712 c-21 -23 -22 -36 -1 -28 9 3 12 2 8 -5 -6 -11 34 -55 43
-46 2 3 1 16 -3 29 -5 13 -9 32 -9 42 0 26 -18 30 -38 8z"/>
<path d="M6064 7676 c-4 -9 -4 -20 0 -23 3 -4 12 -1 18 5 9 9 9 15 0 24 -9 9
-13 7 -18 -6z"/>
<path d="M5110 7657 c0 -21 12 -28 27 -16 19 16 16 29 -7 29 -11 0 -20 -6 -20
-13z"/>
<path d="M5070 7626 c0 -2 7 -6 15 -10 8 -3 15 -1 15 4 0 6 -7 10 -15 10 -8 0
-15 -2 -15 -4z"/>
<path d="M4661 7598 c-5 -14 -17 -28 -25 -31 -17 -7 -22 -37 -6 -37 5 0 9 -10
7 -21 -1 -12 4 -24 12 -27 10 -3 12 2 7 22 -5 19 -3 26 9 26 8 0 15 5 15 10 0
6 -5 10 -12 10 -7 0 -5 5 5 13 9 6 15 20 14 29 -5 30 -16 32 -26 6z"/>
<path d="M5912 7573 c5 -25 28 -28 28 -4 0 12 -6 21 -16 21 -9 0 -14 -7 -12
-17z"/>
<path d="M6003 7576 c-10 -11 -9 -15 3 -20 26 -10 34 -7 34 14 0 23 -19 26
-37 6z"/>
<path d="M6060 7575 c0 -8 7 -15 15 -15 8 0 15 7 15 15 0 8 -7 15 -15 15 -8 0
-15 -7 -15 -15z"/>
<path d="M5342 7561 c2 -7 7 -12 11 -12 12 1 9 15 -3 20 -7 2 -11 -2 -8 -8z"/>
<path d="M5865 7550 c-3 -5 -2 -10 4 -10 5 0 13 5 16 10 3 6 2 10 -4 10 -5 0
-13 -4 -16 -10z"/>
<path d="M4842 7506 c1 -10 8 -17 13 -17 15 1 12 24 -3 29 -9 3 -13 -2 -10
-12z"/>
<path d="M4954 7509 c-8 -14 11 -33 25 -25 16 10 13 36 -3 36 -8 0 -18 -5 -22
-11z"/>
<path d="M5227 7514 c-9 -10 4 -34 19 -34 8 0 14 9 14 20 0 19 -19 27 -33 14z"/>
<path d="M6356 7501 c-4 -5 -2 -12 3 -15 5 -4 12 -2 15 3 4 5 2 12 -3 15 -5 4
-12 2 -15 -3z"/>
<path d="M5984 7489 c-10 -17 13 -36 27 -22 12 12 4 33 -11 33 -5 0 -12 -5
-16 -11z"/>
<path d="M6325 7479 c-10 -15 3 -25 16 -12 7 7 7 13 1 17 -6 3 -14 1 -17 -5z"/>
<path d="M4875 7469 c-9 -13 0 -22 24 -26 15 -2 18 2 14 17 -6 21 -28 27 -38
9z"/>
<path d="M4635 7459 c-10 -15 3 -25 16 -12 7 7 7 13 1 17 -6 3 -14 1 -17 -5z"/>
<path d="M4763 7438 c2 -7 10 -13 17 -13 7 0 15 6 18 13 2 7 -5 12 -18 12 -13
0 -20 -5 -17 -12z"/>
<path d="M4646 7421 c-4 -5 -2 -12 3 -15 5 -4 12 -2 15 3 4 5 2 12 -3 15 -5 4
-12 2 -15 -3z"/>
<path d="M5100 7361 c0 -5 7 -11 15 -15 9 -3 15 0 15 9 0 8 -7 15 -15 15 -8 0
-15 -4 -15 -9z"/>
<path d="M5150 7350 c0 -5 7 -10 15 -10 8 0 15 5 15 10 0 6 -7 10 -15 10 -8 0
-15 -4 -15 -10z"/>
<path d="M5190 7341 c0 -6 5 -13 10 -16 6 -3 10 1 10 9 0 9 -4 16 -10 16 -5 0
-10 -4 -10 -9z"/>
<path d="M5673 7303 c9 -2 23 -2 30 0 6 3 -1 5 -18 5 -16 0 -22 -2 -12 -5z"/>
<path d="M5570 7290 c0 -5 5 -10 10 -10 6 0 10 5 10 10 0 6 -4 10 -10 10 -5 0
-10 -4 -10 -10z"/>
<path d="M5140 7215 c0 -8 7 -15 15 -15 8 0 15 7 15 15 0 8 -7 15 -15 15 -8 0
-15 -7 -15 -15z"/>
<path d="M7442 7209 c2 -6 8 -10 13 -10 5 0 11 4 13 10 2 6 -4 11 -13 11 -9 0
-15 -5 -13 -11z"/>
<path d="M7486 7202 c-3 -6 -1 -14 5 -17 15 -10 25 3 12 16 -7 7 -13 7 -17 1z"/>
<path d="M4357 7193 c-12 -11 -8 -23 8 -23 8 0 15 7 15 15 0 16 -12 20 -23 8z"/>
<path d="M4310 7170 c0 -5 7 -10 16 -10 8 0 12 5 9 10 -3 6 -10 10 -16 10 -5
0 -9 -4 -9 -10z"/>
<path d="M7520 7164 c0 -8 5 -12 10 -9 6 3 10 10 10 16 0 5 -4 9 -10 9 -5 0
-10 -7 -10 -16z"/>
<path d="M5062 7158 c5 -15 28 -18 29 -3 0 6 -7 12 -17 13 -10 3 -15 -1 -12
-10z"/>
<path d="M4286 7151 c-4 -7 -5 -15 -2 -18 9 -9 19 4 14 18 -4 11 -6 11 -12 0z"/>
<path d="M5097 7123 c-12 -11 -8 -22 11 -32 15 -8 18 -5 20 15 2 23 -16 33
-31 17z"/>
<path d="M7445 7070 c-8 -13 4 -32 16 -25 12 8 12 35 0 35 -6 0 -13 -4 -16
-10z"/>
<path d="M4830 7055 c-12 -14 -6 -35 9 -35 4 0 13 11 19 25 9 20 9 25 -2 25
-7 0 -19 -7 -26 -15z"/>
<path d="M4355 7050 c-7 -12 2 -30 16 -30 12 0 12 27 0 35 -5 3 -12 1 -16 -5z"/>
<path d="M5044 7049 c-10 -17 13 -36 27 -22 12 12 4 33 -11 33 -5 0 -12 -5
-16 -11z"/>
<path d="M5160 7040 c0 -15 5 -20 18 -18 9 2 17 10 17 18 0 8 -8 16 -17 18
-13 2 -18 -3 -18 -18z"/>
<path d="M8116 7041 c-9 -15 23 -36 36 -23 5 5 7 15 4 21 -9 13 -33 14 -40 2z"/>
<path d="M7352 7028 c6 -18 28 -21 28 -4 0 9 -7 16 -16 16 -9 0 -14 -5 -12
-12z"/>
<path d="M7870 7030 c0 -5 4 -10 9 -10 6 0 13 5 16 10 3 6 -1 10 -9 10 -9 0
-16 -4 -16 -10z"/>
<path d="M7975 7020 c3 -5 14 -10 23 -10 15 0 15 2 2 10 -20 13 -33 13 -25 0z"/>
<path d="M3660 7005 c0 -16 9 -19 34 -9 25 9 19 24 -9 24 -16 0 -25 -6 -25
-15z"/>
<path d="M3925 7011 c-6 -11 9 -23 19 -14 9 9 7 23 -3 23 -6 0 -12 -4 -16 -9z"/>
<path d="M4444 7006 c-8 -22 3 -33 18 -18 9 9 9 15 0 24 -9 9 -13 7 -18 -6z"/>
<path d="M3818 6993 c6 -2 18 -2 25 0 6 3 1 5 -13 5 -14 0 -19 -2 -12 -5z"/>
<path d="M5185 6991 c-3 -5 -1 -12 5 -16 5 -3 10 1 10 9 0 18 -6 21 -15 7z"/>
<path d="M7108 6993 c-10 -3 -18 -13 -18 -24 0 -24 12 -24 34 0 19 20 12 30
-16 24z"/>
<path d="M7377 6983 c-12 -11 -7 -31 9 -37 8 -3 12 -2 9 4 -3 6 -1 10 4 10 6
0 11 7 11 15 0 15 -21 21 -33 8z"/>
<path d="M4414 6948 c3 -13 6 -27 6 -31 0 -5 7 -1 16 8 19 18 12 45 -12 45
-12 0 -15 -6 -10 -22z"/>
<path d="M4910 6945 c0 -8 4 -15 10 -15 5 0 7 7 4 15 -4 8 -8 15 -10 15 -2 0
-4 -7 -4 -15z"/>
<path d="M4872 6928 c-18 -18 -15 -41 4 -34 9 3 18 6 20 6 8 0 4 29 -4 34 -5
3 -14 0 -20 -6z"/>
<path d="M7300 6914 c0 -9 7 -14 17 -12 25 5 28 28 4 28 -12 0 -21 -6 -21 -16z"/>
<path d="M4484 6899 c-10 -17 13 -36 27 -22 12 12 4 33 -11 33 -5 0 -12 -5
-16 -11z"/>
<path d="M7415 6901 c-8 -15 3 -31 21 -31 9 0 14 7 12 17 -4 20 -24 28 -33 14z"/>
<path d="M4920 6877 c0 -12 7 -32 15 -44 13 -18 22 -21 48 -16 18 3 36 10 42
14 5 5 17 9 26 9 9 0 19 6 22 14 8 19 -15 37 -32 26 -8 -4 -20 -6 -27 -3 -6 2
-19 -6 -28 -19 l-16 -23 -12 33 c-14 37 -38 43 -38 9z"/>
<path d="M4370 6866 c0 -10 9 -16 21 -16 24 0 21 23 -4 28 -10 2 -17 -3 -17
-12z"/>
<path d="M7154 6869 c-3 -6 -1 -16 5 -22 8 -8 11 -5 11 11 0 24 -5 28 -16 11z"/>
<path d="M7102 6848 c-19 -19 -14 -30 11 -26 12 2 22 9 22 17 0 19 -18 24 -33
9z"/>
<path d="M7420 6830 c0 -5 5 -10 10 -10 6 0 10 5 10 10 0 6 -4 10 -10 10 -5 0
-10 -4 -10 -10z"/>
<path d="M4380 6804 c0 -8 5 -12 10 -9 6 4 8 11 5 16 -9 14 -15 11 -15 -7z"/>
<path d="M7144 6786 c-3 -13 -1 -33 5 -44 11 -21 65 -37 85 -25 6 4 19 6 29 5
21 -4 34 25 19 40 -8 8 -15 8 -27 -2 -12 -10 -15 -10 -15 0 0 7 -6 10 -12 7
-49 -20 -48 -20 -48 12 0 38 -27 43 -36 7z"/>
<path d="M5065 6790 c-3 -6 1 -13 10 -16 19 -8 30 0 20 15 -8 14 -22 14 -30 1z"/>
<path d="M5002 6774 c4 -21 22 -23 26 -1 2 10 -3 17 -13 17 -10 0 -15 -6 -13
-16z"/>
<path d="M5110 6770 c0 -11 7 -20 15 -20 8 0 15 9 15 20 0 11 -7 20 -15 20 -8
0 -15 -9 -15 -20z"/>
<path d="M7055 6770 c-3 -5 -1 -10 4 -10 6 0 11 5 11 10 0 6 -2 10 -4 10 -3 0
-8 -4 -11 -10z"/>
<path d="M5060 6742 c0 -14 46 -53 53 -45 4 3 7 15 7 25 0 15 -5 18 -20 13
-11 -4 -20 -2 -20 4 0 6 -4 11 -10 11 -5 0 -10 -4 -10 -8z"/>
<path d="M4370 6715 c0 -14 5 -25 10 -25 6 0 9 6 8 13 -2 7 7 12 21 11 22 -1
23 0 6 13 -28 20 -45 16 -45 -12z"/>
<path d="M5033 6723 c-15 -6 -17 -29 -4 -38 12 -7 43 24 36 36 -7 10 -13 10
-32 2z"/>
<path d="M4930 6674 c0 -8 5 -12 10 -9 6 4 8 11 5 16 -9 14 -15 11 -15 -7z"/>
<path d="M7190 6666 c0 -10 9 -16 21 -16 24 0 21 23 -4 28 -10 2 -17 -3 -17
-12z"/>
<path d="M7264 6669 c-8 -14 18 -31 30 -19 9 9 0 30 -14 30 -5 0 -12 -5 -16
-11z"/>
<path d="M5040 6655 c0 -8 4 -15 9 -15 5 0 11 7 15 15 3 9 0 15 -9 15 -8 0
-15 -7 -15 -15z"/>
<path d="M7309 6650 c-4 -25 -3 -30 5 -32 5 -2 11 7 12 20 2 12 -1 22 -6 22
-6 0 -11 -4 -11 -10z"/>
<path d="M7228 6621 c-32 -18 -37 -41 -9 -41 19 0 57 46 43 53 -4 2 -19 -3
-34 -12z"/>
<path d="M4934 6605 c-15 -10 -16 -16 -7 -26 14 -15 43 -5 43 15 0 22 -15 27
-36 11z"/>
<path d="M7260 6595 c0 -21 30 -31 40 -14 11 17 3 29 -21 29 -10 0 -19 -7 -19
-15z"/>
<path d="M7100 6590 c0 -5 5 -10 10 -10 6 0 10 5 10 10 0 6 -4 10 -10 10 -5 0
-10 -4 -10 -10z"/>
<path d="M7205 6549 c-4 -6 -5 -12 -2 -15 7 -7 37 7 37 17 0 13 -27 11 -35 -2z"/>
<path d="M2364 6026 c-51 -23 -74 -61 -74 -123 0 -49 4 -59 33 -88 44 -44 93
-53 144 -29 75 37 103 117 63 181 -36 60 -107 86 -166 59z"/>
<path d="M9345 6026 c-78 -35 -107 -121 -63 -186 52 -77 142 -88 205 -25 29
29 33 39 33 85 0 62 -26 105 -76 126 -41 17 -60 17 -99 0z"/>
<path d="M8762 4374 c-29 -59 -52 -108 -50 -109 2 -2 75 -39 163 -83 l161 -80
53 106 c51 100 53 106 36 119 -11 7 -22 13 -26 13 -4 0 -26 -34 -48 -75 l-42
-75 -39 20 -40 20 35 69 34 69 -23 16 c-29 18 -31 15 -71 -64 -15 -30 -29 -56
-30 -58 -5 -5 -75 33 -75 41 0 4 16 40 36 79 34 68 35 72 18 85 -10 7 -23 13
-29 13 -6 0 -34 -48 -63 -106z"/>
<path d="M2808 4391 c-81 -42 -150 -80 -154 -83 -12 -12 69 -150 104 -176 30
-23 46 -27 98 -27 54 0 68 4 106 31 66 48 83 77 83 139 0 40 -8 70 -34 124
-19 39 -40 71 -45 71 -6 -1 -77 -36 -158 -79z m157 -41 c8 -16 15 -45 15 -66
0 -68 -91 -129 -165 -110 -23 6 -75 69 -75 92 0 9 184 113 202 114 4 0 14 -13
23 -30z"/>
<path d="M8577 4055 c-43 -63 -77 -119 -77 -125 0 -14 41 -33 50 -23 4 4 18
25 32 45 l24 37 127 -84 126 -85 20 29 21 28 -125 83 c-69 46 -125 86 -125 89
0 4 11 23 25 43 14 20 25 40 25 44 0 7 -31 33 -41 34 -3 0 -40 -52 -82 -115z"/>
<path d="M3030 4014 c-74 -52 -141 -98 -148 -103 -11 -6 3 -32 55 -109 l70
-101 26 18 26 17 -50 71 -49 72 36 27 c32 25 38 26 48 12 6 -9 26 -36 43 -62
36 -50 40 -53 68 -32 19 13 18 16 -23 75 -24 33 -41 65 -37 70 3 6 19 19 34
31 l29 20 48 -67 c26 -38 49 -70 50 -72 2 -2 15 4 29 13 l26 17 -68 99 c-38
55 -70 99 -73 99 -3 0 -66 -43 -140 -95z"/>
<path d="M3253 3694 c-73 -63 -133 -119 -133 -123 0 -10 130 -161 138 -161 10
1 42 26 42 33 0 3 -20 29 -45 58 -25 29 -45 56 -45 59 0 3 50 49 110 100 61
52 110 97 110 100 -1 6 -37 50 -42 50 -1 0 -63 -52 -135 -116z"/>
<path d="M8382 3783 c-101 -50 -120 -187 -30 -224 37 -15 62 -7 135 41 64 44
97 48 117 18 8 -14 6 -26 -8 -52 -21 -40 -61 -60 -99 -51 -20 5 -29 2 -43 -20
-23 -35 -7 -50 52 -49 84 2 164 83 164 166 0 27 -8 44 -31 67 -46 47 -99 40
-184 -25 -46 -35 -81 -40 -95 -15 -12 23 -8 34 23 69 14 15 32 22 56 22 26 1
41 7 54 25 17 23 17 25 -2 35 -28 15 -71 12 -109 -7z"/>
<path d="M3485 3430 l-130 -130 25 -25 25 -25 130 130 130 130 -25 25 -25 25
-130 -130z"/>
<path d="M8057 3454 l-28 -24 72 -172 c40 -95 75 -176 79 -181 3 -4 17 4 30
18 23 24 23 26 8 59 l-16 33 49 49 49 48 35 -17 c33 -16 38 -16 60 -1 14 9 25
20 25 24 0 5 -62 42 -137 83 -216 117 -194 109 -226 81z m157 -170 l-39 -33
-32 71 c-18 39 -33 72 -33 74 0 2 32 -15 71 -38 l71 -41 -38 -33z"/>
<path d="M3708 3340 c-76 -40 -128 -139 -114 -215 15 -76 126 -157 193 -141
15 4 38 14 51 22 l22 15 -27 23 c-22 19 -32 22 -49 14 -51 -23 -124 28 -124
86 0 73 71 146 140 146 49 0 90 -39 90 -85 0 -40 45 -88 61 -65 5 8 8 39 6 68
-3 44 -10 59 -38 89 -61 64 -140 80 -211 43z"/>
<path d="M7753 3213 c-62 -43 -112 -82 -112 -88 0 -5 6 -18 14 -28 13 -18 16
-17 60 13 27 18 50 28 54 23 67 -101 167 -233 176 -233 6 0 20 9 29 19 17 18
14 24 -69 141 -48 67 -85 123 -83 124 1 2 22 17 45 33 40 28 41 31 27 52 -8
11 -18 21 -22 21 -4 0 -58 -35 -119 -77z"/>
<path d="M4017 2998 l-99 -152 24 -18 c12 -9 26 -18 29 -18 4 0 51 68 105 151
l98 151 -25 19 c-13 10 -26 19 -29 19 -3 0 -49 -68 -103 -152z"/>
<path d="M4275 2971 c-99 -61 -135 -202 -72 -284 30 -39 102 -77 147 -77 95 0
183 101 184 211 1 46 -4 62 -27 92 -55 72 -165 100 -232 58z m161 -72 c72 -67
5 -219 -98 -219 -52 0 -98 43 -98 92 1 45 32 110 66 137 36 28 94 24 130 -10z"/>
<path d="M7349 2967 c-29 -11 -39 -42 -39 -122 0 -68 -9 -70 -85 -16 -69 49
-69 49 -102 33 -18 -9 -33 -18 -33 -21 1 -3 48 -37 105 -76 100 -67 106 -73
131 -132 15 -35 31 -63 35 -63 4 0 20 5 34 12 28 13 28 19 -9 99 -22 45 -22
51 -10 156 19 160 21 150 -27 130z"/>
<path d="M4691 2818 c-5 -13 -26 -73 -46 -132 -42 -122 -41 -157 3 -199 79
-76 197 -74 237 4 27 51 94 254 87 261 -4 4 -19 9 -33 13 -25 6 -27 3 -64
-107 -50 -150 -56 -158 -106 -158 -41 0 -89 33 -89 62 0 7 19 68 42 135 23 67
40 124 38 127 -3 2 -17 7 -32 11 -23 6 -29 3 -37 -17z"/>
<path d="M6820 2757 c-61 -32 -94 -94 -86 -161 20 -179 190 -254 308 -136 31
31 38 45 38 78 l0 41 -31 -9 c-18 -5 -32 -11 -33 -12 -1 -2 -6 -16 -12 -33
-19 -60 -104 -76 -155 -29 -26 23 -52 108 -44 144 14 65 110 105 149 61 15
-16 22 -17 52 -8 18 6 34 14 34 18 0 4 -16 21 -35 38 -30 26 -44 31 -89 31
-36 0 -67 -7 -96 -23z"/>
<path d="M5131 2686 c-51 -28 -67 -105 -31 -144 12 -12 44 -34 73 -48 91 -46
110 -78 63 -109 -33 -22 -95 -1 -116 40 -18 37 -29 45 -57 45 -57 0 -7 -107
64 -136 38 -16 126 -18 154 -4 25 14 49 62 49 97 0 44 -25 70 -101 109 -73 36
-89 55 -72 83 23 37 86 24 114 -23 25 -42 79 -57 79 -21 0 33 -41 88 -80 107
-41 21 -105 23 -139 4z"/>
<path d="M6523 2683 c-13 -2 -23 -6 -23 -7 0 -12 71 -350 74 -354 3 -2 19 -1
36 3 22 5 29 11 26 23 -3 10 -19 90 -37 180 -19 96 -36 161 -43 161 -6 -1 -21
-4 -33 -6z"/>
<path d="M6168 2633 c-37 -3 -58 -8 -58 -16 0 -20 31 -311 36 -334 3 -17 11
-23 33 -23 15 0 30 2 33 5 2 3 1 35 -4 72 -4 37 -5 69 -3 72 3 2 33 8 68 12
52 6 66 12 89 38 40 45 40 111 -1 152 -31 31 -36 32 -193 22z m148 -78 c15
-23 15 -27 0 -50 -13 -19 -26 -25 -56 -26 -22 -1 -46 -2 -52 -3 -8 -1 -15 17
-18 46 -6 46 -5 47 25 51 73 9 84 7 101 -18z"/>
<path d="M5786 2620 c-90 -27 -112 -132 -36 -178 16 -11 54 -24 84 -31 61 -13
91 -39 81 -69 -7 -25 -52 -42 -89 -35 -15 3 -37 19 -49 34 -15 22 -29 29 -54
29 -38 0 -41 -12 -14 -56 24 -40 77 -64 141 -64 63 0 105 20 126 61 35 69 -11
138 -108 159 -93 19 -122 54 -73 86 32 21 80 10 101 -22 12 -18 25 -24 51 -24
31 0 34 2 28 23 -11 35 -56 76 -94 87 -42 11 -55 11 -95 0z"/>
</g>
</svg>
